<svg id="svg" version="1.1" xmlns="http://www.w3.org/2000/svg" xmlns:xlink="http://www.w3.org/1999/xlink" width="400" height="143.88100067613252" viewBox="0, 0, 400,143.88100067613252"><g id="svgg"><path id="path0" d="M46.667 62.099 C 46.667 91.929,46.623 90.500,47.525 90.500 C 47.927 90.500,48.500 91.370,48.500 91.980 C 48.500 92.338,48.622 92.572,48.903 92.756 C 49.125 92.902,49.461 93.349,49.649 93.750 C 49.838 94.151,50.093 94.540,50.217 94.614 C 50.341 94.689,50.488 94.875,50.544 95.029 C 50.600 95.182,50.820 95.332,51.031 95.362 C 51.278 95.397,51.435 95.547,51.468 95.780 C 51.497 95.980,51.815 96.430,52.177 96.780 C 52.588 97.179,52.835 97.572,52.839 97.833 C 52.845 98.277,53.349 99.000,53.652 99.000 C 53.752 99.000,53.833 99.150,53.833 99.333 C 53.833 99.517,53.938 99.667,54.066 99.667 C 54.193 99.667,54.341 99.779,54.394 99.917 C 54.477 100.134,55.551 100.167,62.661 100.167 L 70.833 100.167 70.833 98.250 L 70.833 96.333 64.187 96.333 C 58.483 96.333,57.511 96.298,57.333 96.083 C 57.219 95.946,56.956 95.833,56.748 95.833 C 56.469 95.833,56.301 95.670,56.106 95.208 C 55.759 94.383,55.352 93.739,54.792 93.130 C 54.480 92.791,54.333 92.451,54.333 92.066 C 54.333 91.674,54.256 91.500,54.083 91.500 C 53.946 91.500,53.833 91.425,53.833 91.333 C 53.833 91.242,53.740 91.167,53.625 91.166 C 53.407 91.166,52.500 89.849,52.500 89.532 C 52.500 89.432,52.403 89.290,52.284 89.217 C 52.165 89.143,51.903 88.798,51.701 88.449 L 51.333 87.814 51.333 63.496 C 51.333 39.624,51.339 39.175,51.656 39.006 C 52.345 38.637,105.127 38.780,105.325 39.152 C 105.439 39.364,105.497 47.490,105.499 63.589 L 105.502 87.709 105.138 88.438 C 104.866 88.983,104.677 89.167,104.389 89.167 C 104.115 89.167,103.936 89.322,103.767 89.708 C 103.636 90.006,103.260 90.504,102.931 90.815 C 102.476 91.245,102.333 91.514,102.333 91.940 C 102.333 92.295,102.252 92.500,102.111 92.500 C 101.989 92.500,101.789 92.688,101.667 92.917 C 101.527 93.178,101.299 93.333,101.055 93.333 C 100.825 93.333,100.667 93.433,100.667 93.578 C 100.667 93.928,99.997 95.167,99.808 95.167 C 99.721 95.167,99.571 95.392,99.475 95.668 C 99.230 96.368,99.567 96.347,89.500 96.296 L 80.417 96.250 80.371 92.958 L 80.326 89.667 81.066 89.667 C 81.473 89.667,81.831 89.590,81.862 89.497 C 81.893 89.404,82.312 89.281,82.793 89.224 C 83.304 89.163,83.667 89.037,83.667 88.920 C 83.667 88.810,84.098 88.622,84.625 88.503 C 86.165 88.154,87.167 87.808,87.167 87.624 C 87.167 87.344,87.719 87.011,88.194 87.005 C 88.477 87.002,88.788 86.820,89.058 86.500 C 89.289 86.225,89.558 86.000,89.656 86.000 C 89.753 86.000,89.833 85.901,89.833 85.779 C 89.833 85.550,90.511 84.833,90.728 84.833 C 90.963 84.833,92.000 83.916,92.000 83.708 C 92.000 83.594,92.150 83.500,92.333 83.500 C 92.517 83.500,92.667 83.419,92.667 83.321 C 92.667 83.222,92.892 82.916,93.167 82.641 C 93.442 82.366,93.715 81.940,93.774 81.695 C 93.832 81.450,94.016 81.119,94.182 80.959 C 94.349 80.799,94.534 80.405,94.594 80.084 C 94.654 79.763,94.772 79.500,94.856 79.500 C 94.940 79.500,95.080 79.312,95.167 79.083 C 95.254 78.854,95.387 78.667,95.463 78.667 C 96.290 78.667,96.218 69.621,95.387 69.117 C 95.266 69.043,95.167 68.808,95.167 68.593 C 95.167 68.378,95.073 68.166,94.958 68.122 C 94.844 68.078,94.648 67.695,94.523 67.271 C 94.394 66.833,94.197 66.500,94.065 66.500 C 93.927 66.500,93.833 66.326,93.833 66.072 C 93.833 65.576,93.550 64.975,93.226 64.783 C 93.102 64.710,92.998 64.485,92.995 64.283 C 92.988 63.822,92.626 63.333,92.291 63.333 C 92.151 63.333,91.989 63.146,91.932 62.917 C 91.874 62.688,91.716 62.500,91.580 62.500 C 91.434 62.500,91.333 62.345,91.333 62.120 C 91.333 61.907,91.114 61.549,90.833 61.302 C 90.484 60.996,90.333 60.711,90.333 60.358 C 90.333 60.080,90.258 59.807,90.167 59.750 C 90.075 59.693,90.000 59.503,90.000 59.327 C 90.000 59.152,89.813 58.885,89.583 58.735 C 89.354 58.585,89.164 58.339,89.161 58.189 C 89.158 58.039,89.046 57.771,88.911 57.593 C 88.777 57.415,88.667 57.134,88.667 56.968 C 88.667 56.802,88.554 56.667,88.417 56.667 C 88.279 56.667,88.167 56.592,88.167 56.500 C 88.167 56.408,88.073 56.329,87.958 56.324 C 87.724 56.314,86.828 54.571,86.831 54.131 C 86.832 53.974,86.687 53.767,86.509 53.671 C 86.330 53.576,86.052 53.273,85.889 52.999 C 85.727 52.724,85.470 52.500,85.317 52.500 C 85.164 52.500,85.000 52.350,84.952 52.167 C 84.904 51.983,84.745 51.833,84.599 51.833 C 84.453 51.833,84.333 51.741,84.333 51.627 C 84.333 51.275,83.455 49.667,83.263 49.667 C 82.984 49.667,82.593 48.984,82.500 48.335 C 82.441 47.923,82.319 47.735,82.083 47.690 C 81.900 47.656,81.570 47.411,81.351 47.147 C 81.131 46.883,80.813 46.667,80.642 46.667 C 80.448 46.667,80.333 46.547,80.333 46.343 C 80.333 46.165,80.260 45.975,80.171 45.919 C 80.082 45.864,79.886 45.560,79.735 45.243 C 79.564 44.882,79.343 44.667,79.144 44.667 C 78.961 44.667,78.760 44.496,78.673 44.266 C 78.379 43.494,77.714 43.552,77.266 44.388 C 76.516 45.789,76.479 45.833,76.069 45.833 C 75.832 45.833,75.605 45.958,75.536 46.125 C 75.306 46.688,74.581 47.663,74.393 47.665 C 74.175 47.667,74.000 48.046,74.000 48.516 C 74.000 49.061,73.290 49.996,72.875 49.998 C 72.669 49.999,72.500 50.094,72.499 50.208 C 72.499 50.482,71.563 52.357,71.364 52.485 C 71.026 52.700,70.333 53.903,70.333 54.273 C 70.333 54.512,70.235 54.667,70.083 54.667 C 69.946 54.667,69.833 54.742,69.833 54.833 C 69.833 54.925,69.729 55.000,69.601 55.000 C 69.473 55.000,69.326 55.112,69.273 55.250 C 69.220 55.387,69.042 55.500,68.878 55.500 C 68.680 55.500,68.440 55.796,68.169 56.375 C 67.944 56.856,67.626 57.348,67.463 57.468 C 67.300 57.588,67.167 57.804,67.167 57.949 C 67.167 58.222,66.428 59.000,66.168 59.000 C 66.087 59.000,65.969 59.343,65.906 59.763 C 65.843 60.183,65.685 60.567,65.555 60.617 C 65.285 60.721,64.829 61.591,64.503 62.625 C 64.380 63.015,64.185 63.333,64.070 63.333 C 63.954 63.333,63.807 63.577,63.741 63.875 C 63.676 64.173,63.445 64.582,63.228 64.784 C 62.982 65.012,62.833 65.339,62.833 65.650 C 62.833 65.925,62.732 66.210,62.608 66.283 C 62.254 66.492,62.049 66.990,61.656 68.594 C 61.455 69.413,61.243 70.121,61.184 70.167 C 60.545 70.666,60.521 77.194,61.157 77.667 C 61.311 77.781,62.000 79.937,62.000 80.305 C 62.000 80.470,62.157 80.773,62.350 80.979 C 62.542 81.186,62.773 81.621,62.863 81.946 C 62.960 82.297,63.154 82.572,63.341 82.620 C 63.514 82.666,63.703 82.852,63.761 83.034 C 63.819 83.217,63.974 83.490,64.106 83.641 C 64.238 83.793,64.537 84.160,64.771 84.458 C 65.005 84.756,65.290 85.000,65.404 85.000 C 65.518 85.000,65.812 85.225,66.057 85.500 C 66.302 85.775,66.596 86.000,66.711 86.000 C 66.826 86.000,67.013 86.150,67.128 86.333 C 67.242 86.517,67.429 86.668,67.543 86.670 C 67.657 86.672,67.938 86.821,68.167 87.000 C 68.396 87.179,68.752 87.328,68.958 87.330 C 69.165 87.332,69.333 87.399,69.333 87.480 C 69.333 87.626,69.893 87.846,72.000 88.532 C 72.596 88.726,73.108 88.948,73.139 89.026 C 73.169 89.103,73.372 89.167,73.589 89.167 C 73.806 89.167,74.043 89.273,74.117 89.403 C 74.190 89.534,74.512 89.665,74.833 89.695 L 75.417 89.750 75.461 94.958 L 75.505 100.167 88.461 100.164 C 102.870 100.162,102.020 100.213,102.422 99.322 C 102.582 98.966,102.891 98.558,103.107 98.416 C 103.323 98.275,103.502 97.992,103.505 97.788 C 103.513 97.269,103.885 96.833,104.322 96.833 C 104.769 96.833,105.027 96.590,105.343 95.875 C 105.474 95.577,105.676 95.333,105.791 95.333 C 105.906 95.333,106.000 95.193,106.000 95.020 C 106.000 94.848,106.112 94.614,106.250 94.500 C 106.388 94.386,106.502 94.170,106.505 94.021 C 106.513 93.638,106.905 93.167,107.217 93.167 C 107.562 93.167,108.000 92.531,108.000 92.030 C 108.000 91.535,108.500 90.667,108.786 90.667 C 108.904 90.667,109.000 90.597,109.000 90.512 C 109.000 90.427,109.131 90.226,109.292 90.066 C 109.559 89.798,109.590 89.092,109.667 81.512 L 109.750 73.250 118.292 73.207 L 126.833 73.164 126.833 59.248 L 126.833 45.333 118.514 45.333 C 113.938 45.333,110.075 45.288,109.930 45.232 C 109.698 45.143,109.667 44.516,109.667 39.899 L 109.667 34.667 78.167 34.667 L 46.667 34.667 46.667 62.099 M121.814 49.894 C 121.951 50.058,121.991 52.717,121.960 59.519 L 121.917 68.917 115.833 68.917 L 109.750 68.917 109.707 59.500 C 109.683 54.321,109.699 49.990,109.743 49.875 C 109.865 49.556,121.549 49.574,121.814 49.894 M78.532 51.389 C 78.560 51.588,78.740 51.819,78.931 51.903 C 79.123 51.987,79.535 52.451,79.848 52.933 C 80.163 53.418,80.565 53.834,80.748 53.863 C 80.931 53.893,81.103 54.067,81.132 54.250 C 81.160 54.433,81.268 54.754,81.372 54.962 C 81.513 55.246,81.511 55.389,81.363 55.537 C 81.255 55.645,81.167 55.863,81.167 56.022 C 81.167 56.190,81.016 56.332,80.806 56.363 C 80.539 56.403,80.326 56.698,79.987 57.500 C 79.700 58.178,79.416 58.606,79.227 58.644 C 78.793 58.732,78.531 59.149,78.407 59.948 C 78.337 60.400,78.100 60.868,77.733 61.281 C 77.422 61.631,77.167 61.996,77.167 62.094 C 77.166 62.633,76.470 63.667,76.107 63.667 C 75.701 63.667,74.667 65.358,74.667 66.023 C 74.667 66.194,74.573 66.334,74.458 66.335 C 74.241 66.336,73.482 67.508,73.327 68.083 C 73.277 68.267,73.071 68.441,72.868 68.470 C 72.639 68.503,72.500 68.641,72.500 68.835 C 72.500 69.007,72.427 69.192,72.338 69.247 C 72.249 69.302,72.093 69.663,71.991 70.049 C 71.890 70.434,71.625 70.922,71.403 71.132 C 71.181 71.342,71.000 71.656,71.000 71.831 C 71.000 72.280,70.346 73.333,70.067 73.333 C 69.938 73.333,69.833 73.446,69.833 73.583 C 69.833 73.721,69.730 73.833,69.604 73.833 C 69.478 73.833,69.330 74.058,69.275 74.333 C 69.206 74.679,69.077 74.833,68.858 74.833 C 68.637 74.833,68.433 75.084,68.183 75.667 C 67.985 76.125,67.747 76.500,67.654 76.500 C 67.560 76.500,67.373 76.762,67.239 77.083 C 67.105 77.404,66.930 77.667,66.851 77.667 C 66.771 77.667,66.665 77.823,66.615 78.013 C 66.455 78.626,65.762 78.371,65.695 77.676 C 65.665 77.360,65.545 77.022,65.428 76.926 C 65.099 76.653,64.776 74.512,64.896 73.401 C 65.135 71.202,65.207 70.833,65.400 70.833 C 65.510 70.833,65.692 70.387,65.805 69.840 C 65.918 69.294,66.120 68.737,66.255 68.602 C 66.390 68.467,66.500 68.202,66.500 68.012 C 66.500 67.822,66.599 67.667,66.719 67.667 C 66.839 67.667,67.041 67.404,67.167 67.083 C 67.293 66.762,67.494 66.500,67.614 66.500 C 67.738 66.500,67.833 66.315,67.833 66.077 C 67.833 65.412,68.454 64.333,68.837 64.333 C 69.042 64.333,69.167 64.221,69.167 64.037 C 69.167 63.874,69.317 63.612,69.500 63.455 C 69.683 63.298,69.833 63.057,69.833 62.918 C 69.833 62.780,69.944 62.667,70.080 62.667 C 70.216 62.667,70.378 62.463,70.441 62.213 C 70.597 61.590,71.131 60.716,71.424 60.603 C 71.558 60.552,71.667 60.352,71.667 60.159 C 71.667 59.551,72.555 57.837,72.870 57.835 C 73.140 57.833,74.000 56.330,74.000 55.859 C 74.000 55.753,74.094 55.666,74.208 55.665 C 74.473 55.662,75.167 54.603,75.167 54.202 C 75.167 53.777,75.493 53.500,75.994 53.500 C 76.421 53.500,76.494 53.413,77.072 52.218 C 77.214 51.925,77.430 51.625,77.553 51.551 C 77.675 51.477,77.823 51.287,77.881 51.128 C 78.022 50.746,78.466 50.924,78.532 51.389 M84.676 59.717 C 84.909 59.778,85.000 59.947,85.000 60.318 C 85.000 60.741,85.067 60.834,85.375 60.834 C 85.727 60.835,86.333 61.591,86.333 62.028 C 86.333 62.121,86.473 62.321,86.645 62.473 C 87.248 63.010,87.750 64.765,87.437 65.243 C 87.288 65.470,87.164 65.826,87.161 66.036 C 87.155 66.462,86.807 67.000,86.537 67.000 C 86.440 67.000,86.186 67.450,85.973 68.000 C 85.703 68.695,85.496 69.000,85.293 69.000 C 85.132 69.000,85.000 69.075,85.000 69.167 C 85.000 69.258,84.891 69.333,84.757 69.333 C 84.614 69.333,84.429 69.625,84.309 70.042 C 84.197 70.431,84.006 70.898,83.886 71.079 C 83.765 71.260,83.667 71.570,83.667 71.768 C 83.667 71.966,83.491 72.244,83.276 72.385 C 83.060 72.526,82.791 72.867,82.676 73.144 C 82.555 73.436,82.322 73.669,82.122 73.699 C 81.904 73.731,81.720 73.936,81.626 74.250 C 81.364 75.121,81.119 75.500,80.817 75.500 C 80.535 75.500,79.798 76.837,79.561 77.779 C 79.508 77.992,79.341 78.167,79.190 78.167 C 78.892 78.167,78.000 79.455,78.000 79.886 C 78.000 80.033,77.857 80.288,77.682 80.452 C 77.507 80.616,77.184 81.200,76.965 81.750 C 76.607 82.645,76.510 82.755,76.045 82.801 C 75.588 82.846,75.513 82.927,75.421 83.477 C 75.237 84.562,74.653 85.122,73.964 84.873 C 73.650 84.760,73.248 84.668,73.072 84.670 C 72.482 84.675,71.236 83.924,70.783 83.292 C 70.538 82.948,70.223 82.667,70.085 82.667 C 69.759 82.667,69.758 82.231,70.083 82.106 C 70.221 82.054,70.333 81.837,70.333 81.626 C 70.333 81.414,70.436 81.093,70.562 80.912 C 70.688 80.731,70.844 80.339,70.909 80.040 C 70.974 79.742,71.152 79.429,71.305 79.346 C 71.578 79.198,71.918 78.616,72.359 77.542 C 72.481 77.244,72.700 77.000,72.846 77.000 C 72.991 77.000,73.207 76.794,73.325 76.542 C 73.817 75.494,74.055 75.074,74.248 74.916 C 74.360 74.824,74.509 74.562,74.580 74.333 C 74.904 73.287,75.519 72.500,76.013 72.500 C 76.401 72.500,76.514 72.412,76.599 72.042 C 76.823 71.061,77.117 70.321,77.427 69.958 C 77.770 69.555,77.945 69.223,78.480 67.958 C 78.703 67.431,78.915 67.166,79.116 67.166 C 79.457 67.164,79.997 66.322,80.005 65.778 C 80.012 65.309,80.378 64.833,80.732 64.833 C 80.907 64.833,81.150 64.521,81.381 64.000 C 81.666 63.357,81.835 63.167,82.125 63.167 C 82.345 63.167,82.500 63.065,82.500 62.920 C 82.500 62.482,83.030 61.333,83.232 61.333 C 83.505 61.333,83.931 60.545,84.089 59.750 C 84.162 59.383,84.251 59.207,84.286 59.358 C 84.322 59.509,84.497 59.671,84.676 59.717 M90.409 70.542 C 90.471 70.840,90.563 71.421,90.613 71.833 C 90.663 72.246,90.808 72.643,90.935 72.717 C 91.095 72.808,91.167 73.181,91.167 73.917 C 91.167 74.652,91.095 75.025,90.935 75.117 C 90.808 75.190,90.665 75.587,90.617 76.000 C 90.420 77.709,89.901 79.208,89.444 79.383 C 89.326 79.428,89.137 79.776,89.023 80.157 C 88.891 80.595,88.681 80.901,88.449 80.991 C 88.248 81.070,87.971 81.302,87.833 81.507 C 87.302 82.299,86.794 82.833,86.572 82.833 C 86.445 82.833,86.218 83.021,86.068 83.250 C 85.903 83.502,85.638 83.667,85.397 83.667 C 85.170 83.667,85.000 83.765,85.000 83.897 C 85.000 84.024,84.831 84.166,84.625 84.214 C 84.183 84.315,83.194 84.658,82.821 84.839 C 82.419 85.034,79.999 85.225,80.005 85.061 C 80.015 84.792,80.423 84.373,80.736 84.311 C 80.936 84.272,81.122 83.996,81.257 83.536 C 81.510 82.680,81.773 82.333,82.169 82.333 C 82.375 82.333,82.497 82.153,82.576 81.729 C 82.713 81.002,83.004 80.500,83.290 80.500 C 83.406 80.500,83.500 80.370,83.500 80.211 C 83.500 79.798,84.381 78.168,84.604 78.167 C 84.707 78.167,84.837 77.942,84.892 77.667 C 84.958 77.337,85.093 77.166,85.287 77.166 C 85.563 77.165,86.167 76.346,86.167 75.974 C 86.167 75.882,86.389 75.586,86.660 75.314 C 86.932 75.043,87.204 74.553,87.265 74.227 C 87.369 73.673,88.144 72.667,88.466 72.667 C 88.657 72.667,88.955 72.047,89.087 71.375 C 89.145 71.077,89.292 70.833,89.412 70.833 C 89.532 70.833,89.678 70.646,89.735 70.417 C 89.883 69.827,90.275 69.900,90.409 70.542 " stroke="none" fill="#09493f" fill-rule="evenodd"></path><path id="path1" d="M0.000 71.917 L 0.000 143.833 200.000 143.833 L 400.000 143.833 400.000 71.917 L 400.000 0.000 200.000 0.000 L 0.000 0.000 0.000 71.917 M109.833 39.833 L 109.917 45.083 118.375 45.127 L 126.833 45.170 126.833 59.250 L 126.833 73.330 118.375 73.373 L 109.917 73.417 109.833 81.583 L 109.750 89.750 109.333 90.373 C 109.104 90.716,108.850 90.997,108.768 90.998 C 108.519 91.001,108.178 91.561,108.172 91.974 C 108.164 92.539,107.660 93.310,107.260 93.368 C 107.054 93.397,106.896 93.562,106.865 93.780 C 106.837 93.979,106.705 94.232,106.573 94.342 C 106.441 94.451,106.333 94.677,106.333 94.844 C 106.333 95.011,106.197 95.246,106.031 95.366 C 105.864 95.485,105.552 95.898,105.338 96.283 C 105.029 96.837,104.842 96.993,104.436 97.033 C 104.030 97.073,103.891 97.188,103.772 97.583 C 103.523 98.413,103.288 98.833,103.074 98.833 C 102.962 98.833,102.711 99.171,102.518 99.583 L 102.165 100.333 88.749 100.333 L 75.333 100.333 75.331 95.458 C 75.328 89.808,75.332 89.833,74.576 89.833 C 74.272 89.833,73.911 89.721,73.774 89.583 C 73.636 89.446,73.296 89.333,73.018 89.333 C 72.740 89.333,72.379 89.193,72.215 89.022 C 72.051 88.851,71.354 88.543,70.667 88.337 C 69.979 88.131,69.333 87.859,69.232 87.731 C 69.130 87.604,68.958 87.500,68.850 87.500 C 68.476 87.500,66.508 86.416,66.504 86.208 C 66.502 86.094,66.387 86.000,66.250 86.000 C 66.112 86.000,66.000 85.893,66.000 85.761 C 66.000 85.630,65.852 85.475,65.671 85.418 C 65.490 85.361,65.098 85.055,64.801 84.740 C 64.503 84.425,64.176 84.167,64.073 84.167 C 63.970 84.167,63.796 83.867,63.686 83.500 C 63.577 83.133,63.404 82.833,63.303 82.833 C 63.053 82.833,62.678 82.314,62.672 81.958 C 62.669 81.798,62.571 81.667,62.453 81.667 C 62.336 81.667,62.137 81.310,62.013 80.875 C 61.564 79.307,61.291 78.589,61.079 78.421 C 60.834 78.226,60.695 77.390,60.561 75.292 C 60.501 74.360,60.398 73.832,60.275 73.831 C 60.132 73.829,60.133 73.797,60.277 73.705 C 60.384 73.637,60.510 73.020,60.558 72.333 C 60.689 70.462,60.840 69.602,61.072 69.417 C 61.186 69.325,61.324 69.063,61.378 68.833 C 61.659 67.645,62.338 65.651,62.513 65.500 C 62.567 65.454,62.716 65.173,62.846 64.875 C 62.975 64.577,63.162 64.333,63.261 64.333 C 63.359 64.333,63.542 63.958,63.667 63.500 C 63.793 63.036,63.991 62.667,64.113 62.667 C 64.234 62.667,64.333 62.546,64.333 62.398 C 64.333 61.974,65.195 60.500,65.443 60.500 C 65.589 60.500,65.668 60.284,65.672 59.875 C 65.677 59.231,65.976 58.667,66.310 58.667 C 66.415 58.667,66.500 58.603,66.500 58.526 C 66.500 58.449,66.687 58.167,66.916 57.901 C 67.146 57.635,67.333 57.283,67.333 57.120 C 67.333 56.956,67.453 56.777,67.600 56.721 C 67.746 56.665,68.006 56.292,68.177 55.893 C 68.399 55.375,68.586 55.167,68.827 55.167 C 69.014 55.167,69.167 55.092,69.167 55.000 C 69.167 54.908,69.278 54.833,69.413 54.833 C 69.549 54.833,69.709 54.640,69.768 54.404 C 69.828 54.167,70.093 53.736,70.359 53.445 C 70.624 53.155,70.930 52.673,71.038 52.375 C 71.145 52.077,71.312 51.833,71.408 51.833 C 71.505 51.833,71.808 51.365,72.083 50.792 C 72.428 50.075,72.690 49.735,72.927 49.701 C 73.326 49.644,73.831 48.873,73.839 48.308 C 73.844 47.913,74.183 47.333,74.408 47.333 C 74.609 47.333,75.155 46.602,75.161 46.325 C 75.169 45.941,75.512 45.668,75.992 45.660 C 76.342 45.655,76.498 45.486,76.876 44.702 C 77.474 43.461,78.086 43.119,78.590 43.744 C 78.776 43.977,79.058 44.167,79.215 44.167 C 79.372 44.167,79.500 44.270,79.500 44.396 C 79.500 44.523,79.617 44.723,79.760 44.841 C 79.902 44.960,80.124 45.307,80.251 45.612 C 80.379 45.917,80.581 46.168,80.700 46.170 C 80.819 46.172,81.128 46.472,81.386 46.837 C 81.644 47.202,81.987 47.500,82.149 47.500 C 82.492 47.500,82.801 48.037,82.869 48.750 C 82.899 49.066,83.044 49.306,83.263 49.402 C 83.454 49.486,83.829 49.973,84.096 50.485 C 84.627 51.499,85.050 52.000,85.375 52.000 C 85.490 52.000,85.763 52.337,85.982 52.750 C 86.201 53.163,86.480 53.500,86.603 53.500 C 86.726 53.500,86.876 53.706,86.935 53.958 C 87.098 54.652,87.700 55.667,87.947 55.667 C 88.068 55.667,88.167 55.808,88.167 55.981 C 88.167 56.154,88.354 56.418,88.583 56.568 C 88.813 56.718,89.000 56.985,89.000 57.161 C 89.000 57.336,89.075 57.527,89.167 57.583 C 89.258 57.640,89.333 57.832,89.333 58.010 C 89.333 58.188,89.432 58.333,89.552 58.333 C 89.831 58.333,90.332 59.371,90.339 59.964 C 90.344 60.460,90.677 61.000,90.977 61.000 C 91.081 61.000,91.167 61.094,91.167 61.208 C 91.167 61.323,91.354 61.635,91.584 61.901 C 91.813 62.167,92.000 62.486,92.000 62.609 C 92.000 62.732,92.139 62.833,92.308 62.833 C 92.510 62.833,92.723 63.077,92.928 63.542 C 93.100 63.931,93.289 64.287,93.347 64.333 C 93.561 64.501,94.000 65.492,94.000 65.807 C 94.000 65.985,94.105 66.171,94.234 66.221 C 94.363 66.270,94.520 66.546,94.583 66.833 C 94.646 67.121,94.797 67.394,94.917 67.440 C 95.038 67.486,95.187 67.724,95.248 67.969 C 95.310 68.213,95.430 68.457,95.515 68.510 C 96.419 69.068,96.495 78.235,95.601 78.917 C 95.481 79.009,95.323 79.272,95.250 79.500 C 95.177 79.728,95.029 79.991,94.921 80.083 C 94.812 80.175,94.624 80.569,94.502 80.958 C 94.380 81.348,94.213 81.667,94.131 81.667 C 94.050 81.667,93.904 81.893,93.807 82.170 C 93.711 82.447,93.484 82.753,93.303 82.850 C 93.122 82.947,92.897 83.245,92.804 83.513 C 92.696 83.821,92.518 84.000,92.317 84.000 C 92.143 84.000,92.000 84.075,92.000 84.167 C 92.000 84.258,91.904 84.333,91.787 84.333 C 91.670 84.333,91.465 84.483,91.333 84.667 C 91.201 84.850,91.001 85.000,90.888 85.000 C 90.654 85.000,89.833 86.017,89.833 86.307 C 89.833 86.413,89.751 86.500,89.651 86.500 C 89.550 86.500,89.257 86.651,88.998 86.835 C 88.740 87.019,88.297 87.216,88.014 87.272 C 87.731 87.329,87.500 87.465,87.500 87.576 C 87.500 87.898,86.279 88.399,85.025 88.591 C 84.626 88.652,84.178 88.844,84.030 89.017 C 83.881 89.191,83.559 89.333,83.314 89.333 C 83.069 89.333,82.826 89.446,82.773 89.583 C 82.714 89.738,82.460 89.833,82.109 89.833 C 81.797 89.833,81.307 89.880,81.021 89.938 L 80.500 90.042 80.500 93.021 L 80.500 96.000 89.792 95.999 L 99.083 95.997 99.292 95.549 C 99.406 95.302,99.500 95.003,99.500 94.883 C 99.500 94.764,99.604 94.667,99.732 94.667 C 99.859 94.667,100.122 94.329,100.316 93.917 C 100.562 93.392,100.769 93.167,101.004 93.167 C 101.201 93.167,101.419 92.994,101.530 92.750 C 101.635 92.521,101.821 92.333,101.943 92.333 C 102.085 92.333,102.167 92.131,102.167 91.780 C 102.167 91.353,102.334 91.051,102.900 90.461 C 103.304 90.039,103.685 89.464,103.747 89.181 C 103.837 88.770,103.945 88.667,104.287 88.667 C 105.203 88.667,105.156 90.025,105.161 63.624 L 105.167 39.166 78.458 39.208 L 51.750 39.250 51.705 63.583 C 51.660 88.562,51.662 88.667,52.278 88.667 C 52.400 88.667,52.500 88.788,52.500 88.936 C 52.500 89.360,53.362 90.833,53.610 90.833 C 53.733 90.833,53.833 90.908,53.833 91.000 C 53.833 91.092,53.938 91.167,54.066 91.167 C 54.337 91.167,54.500 91.522,54.500 92.113 C 54.500 92.360,54.697 92.717,54.977 92.979 C 55.240 93.224,55.658 93.854,55.906 94.379 C 56.298 95.207,56.420 95.333,56.826 95.333 C 57.153 95.333,57.321 95.433,57.381 95.665 C 57.466 95.988,57.640 95.997,64.192 96.040 L 70.917 96.083 70.963 98.208 L 71.010 100.333 62.672 100.333 C 57.224 100.333,54.333 100.276,54.333 100.167 C 54.333 100.075,54.226 100.000,54.095 100.000 C 53.963 100.000,53.808 99.850,53.750 99.667 C 53.692 99.483,53.581 99.333,53.505 99.333 C 53.314 99.333,52.500 97.921,52.500 97.590 C 52.500 97.443,52.391 97.281,52.258 97.230 C 52.124 97.179,51.864 96.881,51.680 96.568 C 51.483 96.235,51.212 96.000,51.024 96.000 C 50.820 96.000,50.664 95.847,50.598 95.583 C 50.541 95.354,50.401 95.167,50.288 95.167 C 50.174 95.167,49.901 94.773,49.680 94.292 C 49.459 93.810,49.066 93.218,48.806 92.975 C 48.513 92.701,48.333 92.362,48.333 92.084 C 48.333 91.490,47.835 90.667,47.475 90.667 C 47.318 90.667,47.034 90.449,46.845 90.183 L 46.500 89.699 46.500 62.210 C 46.500 47.092,46.550 34.672,46.612 34.611 C 46.673 34.549,60.904 34.518,78.237 34.541 L 109.750 34.583 109.833 39.833 M109.833 59.250 L 109.833 68.500 115.750 68.500 L 121.667 68.500 121.667 59.250 L 121.667 50.000 115.750 50.000 L 109.833 50.000 109.833 59.250 M78.000 51.411 C 78.000 51.545,77.850 51.735,77.667 51.833 C 77.483 51.931,77.333 52.086,77.333 52.176 C 77.333 52.678,76.434 53.667,75.978 53.667 C 75.600 53.667,75.500 53.742,75.500 54.024 C 75.500 54.473,74.655 55.833,74.375 55.833 C 74.260 55.833,74.167 55.974,74.167 56.146 C 74.167 56.318,74.054 56.553,73.917 56.667 C 73.779 56.781,73.667 56.971,73.667 57.090 C 73.667 57.476,73.090 58.331,72.830 58.332 C 72.527 58.334,72.046 59.186,71.888 60.000 C 71.826 60.321,71.560 60.799,71.296 61.063 C 71.032 61.327,70.773 61.759,70.720 62.025 C 70.667 62.290,70.558 62.547,70.478 62.597 C 70.399 62.646,70.333 62.832,70.333 63.010 C 70.333 63.188,70.258 63.333,70.167 63.333 C 69.916 63.333,69.372 63.928,69.305 64.275 C 69.273 64.442,69.099 64.608,68.919 64.643 C 68.503 64.723,68.179 65.145,68.172 65.617 C 68.164 66.136,67.819 66.833,67.570 66.833 C 67.454 66.833,67.308 67.077,67.244 67.375 C 67.180 67.673,66.987 68.051,66.814 68.215 C 66.641 68.379,66.500 68.652,66.500 68.822 C 66.500 68.992,66.395 69.171,66.267 69.220 C 66.135 69.271,65.984 69.676,65.918 70.159 C 65.853 70.626,65.703 71.106,65.584 71.225 C 64.971 71.838,64.943 75.966,65.547 76.571 C 65.705 76.728,65.833 77.007,65.833 77.190 C 65.833 77.604,66.125 78.167,66.339 78.167 C 66.428 78.167,66.500 77.942,66.500 77.667 C 66.500 77.333,66.583 77.167,66.750 77.167 C 66.887 77.167,67.000 77.103,67.000 77.024 C 67.000 76.946,67.169 76.697,67.375 76.472 C 67.581 76.246,67.938 75.674,68.167 75.200 C 68.431 74.653,68.690 74.338,68.875 74.336 C 69.052 74.334,69.167 74.206,69.167 74.009 C 69.167 73.825,69.385 73.556,69.674 73.386 C 70.237 73.053,70.833 72.160,70.833 71.649 C 70.833 71.467,71.010 71.152,71.227 70.950 C 71.443 70.749,71.676 70.396,71.745 70.167 C 72.058 69.117,72.595 68.167,72.874 68.167 C 73.035 68.167,73.167 68.095,73.167 68.007 C 73.167 67.920,73.392 67.466,73.667 67.000 C 73.942 66.534,74.167 66.051,74.167 65.927 C 74.167 65.803,74.392 65.461,74.666 65.167 C 74.941 64.873,75.227 64.396,75.301 64.108 C 75.412 63.675,75.529 63.574,75.968 63.531 C 76.359 63.493,76.500 63.396,76.500 63.166 C 76.500 62.994,76.565 62.813,76.645 62.763 C 76.725 62.714,76.832 62.466,76.884 62.212 C 76.935 61.958,77.244 61.450,77.572 61.083 C 77.899 60.717,78.166 60.287,78.167 60.128 C 78.167 59.536,78.699 58.500,79.003 58.500 C 79.199 58.500,79.430 58.226,79.667 57.708 C 80.338 56.246,80.389 56.167,80.658 56.167 C 81.005 56.167,81.340 55.305,81.136 54.939 C 81.052 54.789,80.837 54.667,80.658 54.667 C 80.441 54.667,80.333 54.553,80.333 54.322 C 80.333 53.803,79.374 52.500,78.992 52.500 C 78.813 52.500,78.667 52.402,78.667 52.283 C 78.667 51.977,78.275 51.170,78.125 51.168 C 78.056 51.167,78.000 51.277,78.000 51.411 M84.189 60.131 C 84.163 60.575,83.753 61.276,83.242 61.750 C 83.044 61.933,82.793 62.402,82.685 62.792 C 82.536 63.322,82.403 63.500,82.154 63.500 C 81.916 63.500,81.718 63.735,81.453 64.333 C 81.169 64.973,80.997 65.166,80.712 65.166 C 80.440 65.167,80.315 65.290,80.246 65.625 C 80.072 66.482,79.478 67.479,79.111 67.532 C 78.873 67.567,78.704 67.771,78.586 68.167 C 78.491 68.487,78.320 68.914,78.207 69.114 C 78.093 69.314,78.000 69.598,78.000 69.744 C 78.000 69.891,77.891 70.052,77.758 70.103 C 77.515 70.197,77.023 71.146,76.732 72.083 C 76.618 72.453,76.460 72.597,76.129 72.635 C 75.661 72.690,75.254 73.221,74.829 74.333 C 74.706 74.654,74.432 75.096,74.219 75.314 C 74.007 75.533,73.833 75.808,73.833 75.926 C 73.833 76.333,73.249 77.165,72.962 77.166 C 72.785 77.166,72.630 77.345,72.563 77.625 C 72.396 78.321,71.665 79.500,71.401 79.500 C 71.253 79.500,71.167 79.680,71.167 79.990 C 71.167 80.260,71.097 80.524,71.011 80.577 C 70.925 80.630,70.736 81.084,70.589 81.587 L 70.324 82.502 70.834 83.001 C 71.115 83.275,71.398 83.501,71.464 83.503 C 71.530 83.504,71.760 83.692,71.976 83.920 C 72.192 84.147,72.539 84.333,72.747 84.333 C 72.955 84.333,73.414 84.454,73.765 84.600 C 74.457 84.889,75.164 84.392,75.166 83.614 C 75.167 83.049,75.494 82.667,75.975 82.667 C 76.391 82.667,76.469 82.572,76.726 81.756 C 76.884 81.255,77.085 80.800,77.173 80.746 C 77.261 80.691,77.333 80.501,77.333 80.323 C 77.333 80.146,77.446 80.000,77.583 80.000 C 77.721 80.000,77.833 79.886,77.833 79.747 C 77.833 79.607,78.021 79.196,78.250 78.833 C 78.479 78.470,78.667 78.059,78.667 77.920 C 78.667 77.781,78.810 77.667,78.985 77.667 C 79.203 77.667,79.417 77.418,79.664 76.875 C 80.281 75.519,80.465 75.252,80.821 75.197 C 81.039 75.163,81.202 74.979,81.263 74.697 C 81.477 73.714,81.704 73.333,82.075 73.333 C 82.357 73.333,82.538 73.128,82.847 72.458 C 83.068 71.977,83.381 71.438,83.542 71.260 C 83.702 71.083,83.833 70.860,83.833 70.766 C 83.833 70.354,84.398 69.167,84.594 69.167 C 84.713 69.167,84.834 68.998,84.863 68.792 C 84.896 68.562,85.050 68.398,85.263 68.367 C 85.485 68.335,85.717 68.074,85.908 67.640 C 86.073 67.267,86.386 66.807,86.604 66.618 C 86.822 66.428,87.000 66.114,87.000 65.920 C 87.000 65.726,87.087 65.480,87.192 65.374 C 87.460 65.106,87.407 64.245,87.095 63.799 C 86.951 63.594,86.833 63.295,86.833 63.135 C 86.833 62.976,86.683 62.765,86.500 62.667 C 86.317 62.569,86.167 62.371,86.167 62.228 C 86.167 61.782,85.610 61.000,85.292 61.000 C 85.126 61.000,84.946 60.887,84.894 60.750 C 84.841 60.612,84.698 60.500,84.577 60.500 C 84.456 60.500,84.324 60.331,84.284 60.125 L 84.212 59.750 84.189 60.131 M89.833 70.667 C 89.833 70.850,89.722 71.000,89.587 71.000 C 89.451 71.000,89.295 71.206,89.240 71.458 C 89.034 72.402,88.779 72.840,88.242 73.172 C 87.845 73.417,87.613 73.743,87.420 74.325 C 87.271 74.771,86.981 75.318,86.775 75.541 C 86.568 75.764,86.240 76.315,86.046 76.765 C 85.808 77.316,85.580 77.601,85.346 77.637 C 85.156 77.666,85.000 77.805,85.000 77.945 C 85.000 78.085,84.777 78.408,84.505 78.662 C 84.216 78.932,83.924 79.446,83.803 79.900 C 83.679 80.363,83.442 80.776,83.214 80.925 C 82.975 81.082,82.831 81.343,82.828 81.629 C 82.822 82.180,82.522 82.606,82.083 82.691 C 81.894 82.727,81.693 82.963,81.606 83.252 C 81.336 84.145,81.125 84.482,80.803 84.533 C 80.629 84.561,80.509 84.658,80.535 84.750 C 80.637 85.102,83.567 84.600,84.075 84.143 C 84.162 84.064,84.368 84.000,84.533 84.000 C 84.698 84.000,84.833 83.887,84.833 83.750 C 84.833 83.602,84.986 83.500,85.210 83.500 C 85.417 83.500,85.680 83.351,85.793 83.169 C 85.907 82.987,86.261 82.729,86.579 82.596 C 86.982 82.427,87.243 82.160,87.434 81.718 C 87.597 81.343,87.917 80.978,88.216 80.825 C 88.550 80.655,88.798 80.347,88.946 79.919 C 89.070 79.563,89.317 79.135,89.496 78.968 C 89.675 78.802,89.903 78.347,90.004 77.958 C 90.105 77.568,90.258 76.987,90.344 76.667 C 90.743 75.176,90.687 72.103,90.234 70.625 C 90.112 70.227,89.833 70.256,89.833 70.667 " stroke="none" fill="#e6e6d0" fill-rule="evenodd"></path><path id="path2" d="M62.375 34.625 C 71.060 34.649,85.273 34.649,93.958 34.625 C 102.644 34.601,95.537 34.582,78.167 34.582 C 60.796 34.582,53.690 34.601,62.375 34.625 M51.700 39.200 C 51.546 39.354,51.509 44.986,51.541 63.742 L 51.582 88.083 51.666 63.667 L 51.750 39.250 78.500 39.166 L 105.250 39.082 78.575 39.041 C 58.004 39.009,51.854 39.046,51.700 39.200 M105.248 63.667 C 105.248 77.096,105.268 82.590,105.292 75.875 C 105.316 69.160,105.316 58.173,105.292 51.458 C 105.268 44.744,105.248 50.237,105.248 63.667 M76.933 44.517 C 76.738 44.907,76.731 44.987,76.903 44.845 C 77.108 44.674,77.382 44.000,77.247 44.000 C 77.216 44.000,77.075 44.233,76.933 44.517 M78.783 44.276 C 78.878 44.522,79.500 44.589,79.500 44.353 C 79.500 44.272,79.319 44.171,79.099 44.129 C 78.811 44.074,78.721 44.116,78.783 44.276 M79.708 44.930 C 79.869 45.120,80.000 45.360,80.000 45.462 C 80.000 45.564,80.068 45.689,80.151 45.740 C 80.452 45.927,80.124 45.180,79.775 44.886 C 79.420 44.586,79.419 44.586,79.708 44.930 M75.367 45.867 C 75.257 45.977,75.172 46.183,75.178 46.325 C 75.186 46.503,75.230 46.480,75.319 46.250 C 75.399 46.044,75.666 45.877,76.016 45.814 L 76.583 45.711 76.075 45.689 C 75.795 45.677,75.477 45.757,75.367 45.867 M80.333 46.266 C 80.333 46.395,80.483 46.500,80.667 46.500 C 80.850 46.500,81.000 46.434,81.000 46.353 C 81.000 46.272,80.850 46.166,80.667 46.118 C 80.450 46.062,80.333 46.113,80.333 46.266 M81.645 47.375 C 81.771 47.535,82.034 47.658,82.229 47.647 C 82.566 47.629,82.567 47.624,82.250 47.546 C 82.067 47.501,81.804 47.378,81.667 47.274 C 81.449 47.108,81.446 47.121,81.645 47.375 M82.653 48.458 C 82.733 49.034,82.745 49.045,82.800 48.605 C 82.833 48.341,82.794 48.060,82.713 47.980 C 82.629 47.896,82.604 48.100,82.653 48.458 M115.792 49.957 L 121.667 50.004 121.667 59.252 L 121.667 68.500 115.750 68.500 C 111.917 68.500,109.833 68.559,109.833 68.667 C 109.833 68.775,111.916 68.833,115.747 68.833 L 121.660 68.833 121.751 68.458 C 121.801 68.252,121.821 63.996,121.796 59.000 L 121.750 49.917 115.833 49.914 L 109.917 49.910 115.792 49.957 M83.834 50.203 C 83.832 50.512,84.550 51.649,84.801 51.736 C 85.055 51.824,85.054 51.811,84.792 51.607 C 84.631 51.482,84.500 51.334,84.500 51.277 C 84.500 51.221,84.350 50.929,84.167 50.629 C 83.984 50.329,83.834 50.137,83.834 50.203 M77.881 51.292 C 77.821 51.452,77.645 51.675,77.490 51.787 C 77.202 51.995,76.909 52.743,77.182 52.574 C 77.265 52.522,77.333 52.375,77.333 52.246 C 77.333 52.117,77.474 51.936,77.646 51.844 C 77.818 51.752,77.998 51.525,78.047 51.339 C 78.155 50.924,78.031 50.889,77.881 51.292 M85.000 52.147 C 85.000 52.228,85.181 52.329,85.401 52.371 C 85.689 52.426,85.779 52.384,85.717 52.224 C 85.622 51.978,85.000 51.911,85.000 52.147 M76.000 53.500 L 75.417 53.623 75.948 53.645 C 76.241 53.657,76.527 53.592,76.583 53.500 C 76.640 53.408,76.663 53.343,76.635 53.355 C 76.607 53.367,76.321 53.432,76.000 53.500 M69.167 54.972 C 69.167 55.079,69.021 55.167,68.843 55.167 C 68.665 55.167,68.480 55.231,68.432 55.309 C 68.383 55.388,68.530 55.416,68.758 55.373 C 69.190 55.290,69.438 55.049,69.267 54.878 C 69.212 54.823,69.167 54.865,69.167 54.972 M87.773 55.917 C 87.826 56.054,87.936 56.167,88.018 56.167 C 88.100 56.167,88.167 56.054,88.167 55.917 C 88.167 55.779,88.057 55.667,87.922 55.667 C 87.773 55.667,87.715 55.764,87.773 55.917 M72.611 57.944 C 72.404 58.152,72.499 58.333,72.816 58.333 C 72.989 58.333,73.174 58.221,73.227 58.083 C 73.325 57.828,72.837 57.718,72.611 57.944 M84.272 59.750 C 84.303 59.933,84.330 60.177,84.331 60.292 C 84.332 60.406,84.446 60.500,84.583 60.500 C 84.722 60.500,84.833 60.352,84.833 60.167 C 84.833 59.983,84.726 59.833,84.596 59.833 C 84.465 59.833,84.326 59.740,84.286 59.625 C 84.247 59.510,84.240 59.567,84.272 59.750 M71.760 59.875 C 71.587 60.445,71.545 60.825,71.663 60.752 C 71.736 60.707,71.828 60.445,71.869 60.169 C 71.943 59.664,71.877 59.487,71.760 59.875 M77.667 60.947 C 77.297 61.337,77.290 61.366,77.605 61.198 C 77.801 61.094,78.005 60.895,78.058 60.755 C 78.189 60.414,78.153 60.432,77.667 60.947 M83.250 61.529 C 82.765 62.032,82.764 62.039,83.194 61.764 C 83.439 61.608,83.680 61.372,83.731 61.240 C 83.856 60.913,83.824 60.933,83.250 61.529 M86.180 62.202 C 86.173 62.360,86.335 62.570,86.542 62.670 C 86.860 62.824,86.877 62.819,86.652 62.634 C 86.506 62.515,86.344 62.304,86.290 62.167 C 86.211 61.964,86.190 61.971,86.180 62.202 M91.500 62.250 C 91.500 62.387,91.610 62.500,91.745 62.500 C 91.894 62.500,91.952 62.402,91.894 62.250 C 91.841 62.112,91.731 62.000,91.649 62.000 C 91.567 62.000,91.500 62.112,91.500 62.250 M92.000 63.000 C 92.000 63.092,92.123 63.167,92.273 63.167 C 92.424 63.167,92.650 63.298,92.776 63.458 C 92.976 63.712,92.980 63.690,92.809 63.292 C 92.623 62.857,92.000 62.633,92.000 63.000 M69.167 64.211 C 69.167 64.357,68.998 64.509,68.792 64.549 L 68.417 64.621 68.797 64.644 C 69.163 64.666,69.484 64.262,69.271 64.048 C 69.213 63.991,69.167 64.064,69.167 64.211 M80.667 65.000 L 80.250 65.133 80.708 65.150 C 80.960 65.159,81.167 65.092,81.167 65.000 C 81.167 64.908,81.148 64.841,81.125 64.850 C 81.102 64.859,80.896 64.927,80.667 65.000 M74.375 65.444 C 74.080 65.563,74.115 66.167,74.417 66.167 C 74.572 66.167,74.667 66.009,74.667 65.750 C 74.667 65.521,74.648 65.339,74.625 65.346 C 74.602 65.354,74.490 65.397,74.375 65.444 M93.856 65.671 C 93.843 65.909,93.979 66.217,94.167 66.378 C 94.350 66.535,94.500 66.593,94.500 66.507 C 94.500 66.420,94.395 66.290,94.266 66.217 C 94.137 66.143,93.998 65.896,93.955 65.667 L 93.879 65.250 93.856 65.671 M62.295 65.901 C 62.240 66.189,62.282 66.279,62.443 66.217 C 62.689 66.122,62.756 65.500,62.519 65.500 C 62.438 65.500,62.338 65.681,62.295 65.901 M67.013 67.691 C 67.006 67.841,66.887 68.008,66.750 68.060 C 66.612 68.113,66.500 68.236,66.500 68.335 C 66.500 68.433,66.658 68.366,66.851 68.186 C 67.045 68.006,67.163 67.759,67.115 67.637 C 67.053 67.483,67.022 67.499,67.013 67.691 M73.167 67.877 C 73.167 68.024,72.998 68.176,72.792 68.216 L 72.417 68.288 72.797 68.311 C 73.163 68.333,73.484 67.929,73.271 67.715 C 73.213 67.658,73.167 67.731,73.167 67.877 M85.667 68.127 C 85.667 68.228,85.499 68.334,85.293 68.363 C 85.081 68.394,84.909 68.544,84.894 68.712 C 84.875 68.918,84.891 68.931,84.946 68.753 C 84.989 68.614,85.165 68.500,85.336 68.500 C 85.665 68.500,85.936 68.213,85.767 68.044 C 85.712 67.989,85.667 68.027,85.667 68.127 M95.182 68.167 C 95.167 68.520,95.457 68.932,95.611 68.778 C 95.682 68.707,95.660 68.596,95.562 68.533 C 95.464 68.469,95.340 68.304,95.288 68.167 C 95.204 67.944,95.192 67.944,95.182 68.167 M60.944 69.444 C 60.883 69.506,60.833 69.661,60.833 69.790 C 60.833 69.984,60.876 69.981,61.083 69.774 C 61.221 69.636,61.333 69.481,61.333 69.429 C 61.333 69.298,61.080 69.308,60.944 69.444 M77.846 69.668 C 77.839 69.807,77.683 70.013,77.500 70.128 C 77.317 70.242,77.173 70.467,77.180 70.626 C 77.190 70.856,77.212 70.865,77.283 70.667 C 77.333 70.529,77.524 70.296,77.709 70.149 C 77.893 70.002,78.003 69.777,77.952 69.649 C 77.877 69.461,77.857 69.465,77.846 69.668 M60.604 71.090 C 60.547 71.239,60.510 71.636,60.522 71.972 C 60.542 72.518,60.557 72.495,60.665 71.750 C 60.793 70.863,60.773 70.649,60.604 71.090 M65.231 71.407 C 65.180 71.539,65.174 71.783,65.217 71.949 C 65.269 72.152,65.301 72.105,65.314 71.806 C 65.325 71.561,65.427 71.323,65.542 71.277 C 65.705 71.211,65.704 71.190,65.536 71.180 C 65.419 71.173,65.281 71.275,65.231 71.407 M96.209 71.917 C 96.211 72.283,96.245 72.414,96.285 72.206 C 96.324 71.999,96.323 71.699,96.281 71.540 C 96.239 71.380,96.207 71.550,96.209 71.917 M83.118 71.833 C 83.062 72.050,83.113 72.167,83.266 72.167 C 83.395 72.167,83.500 72.017,83.500 71.833 C 83.500 71.650,83.434 71.500,83.353 71.500 C 83.272 71.500,83.166 71.650,83.118 71.833 M88.417 72.862 C 87.932 73.365,87.930 73.372,88.361 73.097 C 88.605 72.941,88.847 72.705,88.897 72.573 C 89.023 72.247,88.990 72.266,88.417 72.862 M69.708 73.353 C 69.410 73.543,69.175 73.823,69.186 73.975 C 69.203 74.213,69.216 74.211,69.282 73.958 C 69.323 73.798,69.409 73.665,69.471 73.663 C 69.602 73.659,70.457 73.008,70.333 73.007 C 70.287 73.006,70.006 73.162,69.708 73.353 M90.667 73.667 C 90.667 73.942,90.742 74.167,90.833 74.167 C 90.925 74.167,91.000 73.942,91.000 73.667 C 91.000 73.392,90.925 73.167,90.833 73.167 C 90.742 73.167,90.667 73.392,90.667 73.667 M90.539 75.667 C 90.539 75.987,90.573 76.119,90.615 75.958 C 90.657 75.798,90.657 75.535,90.615 75.375 C 90.573 75.215,90.539 75.346,90.539 75.667 M60.542 75.917 C 60.544 76.283,60.578 76.414,60.618 76.206 C 60.658 75.999,60.656 75.699,60.615 75.540 C 60.573 75.380,60.540 75.550,60.542 75.917 M96.205 75.833 C 96.205 76.154,96.240 76.285,96.282 76.125 C 96.323 75.965,96.323 75.702,96.282 75.542 C 96.240 75.381,96.205 75.512,96.205 75.833 M85.717 77.157 C 85.671 77.335,85.489 77.514,85.314 77.554 C 85.057 77.613,85.065 77.623,85.354 77.606 C 85.657 77.587,86.186 76.833,85.896 76.833 C 85.844 76.833,85.764 76.979,85.717 77.157 M72.611 77.111 C 72.550 77.172,72.501 77.303,72.503 77.403 C 72.504 77.525,72.545 77.522,72.628 77.394 C 72.695 77.290,72.900 77.168,73.083 77.122 C 73.406 77.041,73.405 77.038,73.069 77.019 C 72.878 77.009,72.672 77.050,72.611 77.111 M66.500 77.411 C 66.500 77.561,66.598 77.619,66.750 77.560 C 66.887 77.508,67.000 77.397,67.000 77.316 C 67.000 77.234,66.887 77.167,66.750 77.167 C 66.612 77.167,66.500 77.277,66.500 77.411 M79.042 77.618 C 78.835 77.657,78.667 77.790,78.667 77.913 C 78.667 78.201,79.278 78.051,79.400 77.734 C 79.449 77.605,79.473 77.510,79.453 77.523 C 79.433 77.535,79.248 77.578,79.042 77.618 M72.208 78.208 C 72.029 78.698,72.034 78.719,72.255 78.426 C 72.467 78.147,72.592 77.667,72.453 77.667 C 72.427 77.667,72.317 77.910,72.208 78.208 M60.871 78.198 C 60.955 78.447,61.333 78.584,61.333 78.365 C 61.333 78.276,61.215 78.157,61.069 78.101 C 60.907 78.039,60.831 78.076,60.871 78.198 M89.833 78.466 C 89.833 78.569,89.665 78.811,89.458 79.004 C 89.173 79.270,89.154 79.327,89.380 79.241 C 89.708 79.115,90.082 78.526,89.930 78.375 C 89.877 78.321,89.833 78.362,89.833 78.466 M94.941 79.670 C 94.711 80.060,94.701 80.143,94.892 80.070 C 95.025 80.019,95.176 79.817,95.227 79.621 C 95.364 79.097,95.270 79.113,94.941 79.670 M83.500 80.348 C 83.500 80.448,83.331 80.678,83.125 80.858 L 82.750 81.186 83.208 80.907 C 83.596 80.671,83.852 80.167,83.583 80.167 C 83.537 80.167,83.500 80.248,83.500 80.348 M94.318 80.966 C 93.952 81.394,93.802 81.835,94.057 81.737 C 94.171 81.693,94.348 81.435,94.451 81.162 C 94.669 80.583,94.659 80.568,94.318 80.966 M70.429 81.595 C 70.367 81.839,70.349 82.071,70.389 82.111 C 70.428 82.150,70.510 81.982,70.571 81.738 C 70.633 81.494,70.651 81.262,70.611 81.223 C 70.572 81.183,70.490 81.351,70.429 81.595 M70.997 83.292 C 71.097 83.498,71.288 83.667,71.423 83.667 C 71.557 83.667,71.667 83.739,71.667 83.827 C 71.667 83.916,71.835 84.078,72.042 84.188 C 72.398 84.377,72.396 84.366,72.000 83.947 C 71.771 83.704,71.517 83.504,71.435 83.503 C 71.353 83.501,71.181 83.369,71.051 83.208 C 70.838 82.945,70.833 82.953,70.997 83.292 M92.375 83.618 C 91.920 83.705,91.874 84.000,92.316 84.000 C 92.489 84.000,92.674 83.887,92.727 83.750 C 92.780 83.612,92.806 83.510,92.786 83.523 C 92.766 83.535,92.581 83.578,92.375 83.618 M72.514 84.393 C 72.552 84.425,72.846 84.500,73.167 84.559 C 73.577 84.634,73.676 84.618,73.500 84.502 C 73.274 84.354,72.349 84.251,72.514 84.393 M90.362 85.219 C 90.163 85.431,90.000 85.673,90.000 85.756 C 90.000 85.839,90.121 85.735,90.268 85.525 C 90.415 85.315,90.696 85.078,90.893 84.999 C 91.131 84.902,91.163 84.851,90.987 84.844 C 90.843 84.838,90.562 85.007,90.362 85.219 M89.333 86.430 L 88.917 86.841 89.374 86.629 C 89.625 86.512,89.831 86.323,89.832 86.208 C 89.834 85.941,89.827 85.944,89.333 86.430 M88.167 87.098 C 87.621 87.321,87.615 87.330,88.083 87.240 C 88.358 87.187,88.655 87.073,88.742 86.988 C 88.941 86.793,88.884 86.804,88.167 87.098 M69.254 87.817 C 69.343 87.905,69.642 88.030,69.917 88.095 C 70.562 88.248,70.417 88.106,69.670 87.854 C 69.352 87.746,69.164 87.729,69.254 87.817 M72.107 88.918 C 72.218 89.207,72.832 89.399,73.278 89.284 C 73.457 89.238,73.367 89.197,73.059 89.186 C 72.762 89.175,72.494 89.059,72.440 88.917 C 72.387 88.779,72.269 88.667,72.177 88.667 C 72.085 88.667,72.054 88.780,72.107 88.918 M83.894 88.917 C 83.841 89.054,83.599 89.177,83.357 89.189 C 82.942 89.211,82.939 89.216,83.308 89.286 C 83.562 89.335,83.814 89.238,84.023 89.014 C 84.201 88.823,84.266 88.667,84.168 88.667 C 84.070 88.667,83.946 88.779,83.894 88.917 M73.667 89.497 C 73.667 89.690,74.469 89.920,74.619 89.770 C 74.676 89.713,74.560 89.667,74.361 89.667 C 74.162 89.667,74.000 89.592,74.000 89.500 C 74.000 89.408,73.925 89.333,73.833 89.333 C 73.742 89.333,73.667 89.407,73.667 89.497 M82.667 89.472 C 82.667 89.579,82.423 89.678,82.125 89.692 C 81.592 89.716,81.591 89.718,82.062 89.788 C 82.540 89.859,82.996 89.607,82.781 89.392 C 82.718 89.329,82.667 89.365,82.667 89.472 M80.371 92.958 L 80.417 96.083 89.708 96.085 L 99.000 96.088 89.750 96.042 L 80.500 95.997 80.500 93.010 C 80.500 90.045,80.503 90.023,80.875 89.951 C 81.194 89.890,81.181 89.875,80.788 89.856 L 80.326 89.833 80.371 92.958 M46.979 90.375 C 47.105 90.535,47.367 90.658,47.562 90.647 C 47.899 90.629,47.900 90.624,47.583 90.546 C 47.400 90.501,47.137 90.378,47.000 90.274 C 46.783 90.108,46.780 90.121,46.979 90.375 M54.333 91.990 C 54.333 92.260,54.393 92.517,54.465 92.562 C 54.538 92.607,54.567 92.386,54.530 92.072 C 54.448 91.371,54.333 91.324,54.333 91.990 M101.083 93.119 C 100.573 93.242,100.416 93.470,100.906 93.376 C 101.144 93.331,101.379 93.227,101.429 93.147 C 101.479 93.066,101.496 93.009,101.468 93.019 C 101.440 93.030,101.267 93.075,101.083 93.119 M49.579 94.125 C 50.075 95.086,50.164 95.219,50.162 95.000 C 50.160 94.862,50.004 94.563,49.815 94.333 C 49.626 94.104,49.520 94.011,49.579 94.125 M56.011 94.855 C 55.995 95.261,56.421 95.533,56.948 95.454 C 57.392 95.387,57.388 95.382,56.870 95.358 C 56.472 95.340,56.282 95.231,56.172 94.958 C 56.070 94.705,56.018 94.671,56.011 94.855 M99.500 94.911 C 99.500 95.061,99.598 95.119,99.750 95.060 C 99.888 95.008,100.000 94.897,100.000 94.816 C 100.000 94.734,99.888 94.667,99.750 94.667 C 99.612 94.667,99.500 94.777,99.500 94.911 M50.621 95.678 C 50.663 95.837,50.867 96.000,51.076 96.039 C 51.370 96.096,51.438 96.048,51.379 95.822 C 51.337 95.663,51.133 95.500,50.924 95.461 C 50.630 95.404,50.562 95.452,50.621 95.678 M57.442 96.042 C 57.485 96.110,60.513 96.167,64.172 96.167 L 70.823 96.167 70.878 98.250 L 70.932 100.334 70.924 98.209 L 70.917 96.083 64.141 96.000 C 60.414 95.954,57.400 95.973,57.442 96.042 M52.110 97.105 C 52.308 97.276,52.509 97.567,52.557 97.750 C 52.626 98.012,52.638 97.998,52.614 97.686 C 52.597 97.461,52.402 97.180,52.167 97.040 L 51.750 96.792 52.110 97.105 M53.005 98.700 C 53.002 98.764,53.188 99.018,53.417 99.266 C 53.732 99.607,53.833 99.649,53.833 99.441 C 53.833 99.290,53.748 99.167,53.643 99.167 C 53.539 99.167,53.354 99.035,53.232 98.875 C 53.110 98.715,53.008 98.636,53.005 98.700 " stroke="none" fill="#8bada2" fill-rule="evenodd"></path><path id="path3" d="M46.564 37.667 C 46.564 38.813,46.591 39.281,46.623 38.708 C 46.656 38.135,46.656 37.198,46.623 36.625 C 46.591 36.052,46.564 36.521,46.564 37.667 M54.208 38.958 C 55.194 38.987,56.806 38.987,57.792 38.958 C 58.777 38.928,57.971 38.904,56.000 38.904 C 54.029 38.904,53.223 38.928,54.208 38.958 M68.542 38.948 C 68.702 38.990,68.965 38.990,69.125 38.948 C 69.285 38.906,69.154 38.872,68.833 38.872 C 68.512 38.872,68.381 38.906,68.542 38.948 M72.125 38.957 C 72.698 38.989,73.635 38.989,74.208 38.957 C 74.781 38.924,74.313 38.898,73.167 38.898 C 72.021 38.898,71.552 38.924,72.125 38.957 M75.708 38.948 C 75.869 38.990,76.131 38.990,76.292 38.948 C 76.452 38.906,76.321 38.872,76.000 38.872 C 75.679 38.872,75.548 38.906,75.708 38.948 M78.047 38.956 C 78.485 38.990,79.160 38.990,79.547 38.955 C 79.934 38.920,79.575 38.892,78.750 38.892 C 77.925 38.893,77.609 38.922,78.047 38.956 M82.458 38.956 C 82.940 38.990,83.727 38.990,84.208 38.956 C 84.690 38.923,84.296 38.895,83.333 38.895 C 82.371 38.895,81.977 38.923,82.458 38.956 M97.917 38.950 C 101.633 39.068,105.295 39.072,105.225 38.958 C 105.182 38.890,103.183 38.849,100.782 38.868 C 98.381 38.887,97.092 38.924,97.917 38.950 M51.375 39.750 C 51.377 40.117,51.411 40.247,51.451 40.040 C 51.491 39.832,51.490 39.532,51.448 39.373 C 51.406 39.214,51.374 39.383,51.375 39.750 M46.581 62.083 C 46.581 74.367,46.601 79.367,46.625 73.195 C 46.649 67.024,46.649 56.974,46.625 50.862 C 46.601 44.750,46.581 49.800,46.581 62.083 M109.709 44.583 C 109.711 44.950,109.745 45.080,109.785 44.873 C 109.824 44.666,109.823 44.366,109.781 44.206 C 109.739 44.047,109.707 44.217,109.709 44.583 M110.875 45.290 C 111.402 45.323,112.265 45.323,112.792 45.290 C 113.319 45.257,112.888 45.230,111.833 45.230 C 110.779 45.230,110.348 45.257,110.875 45.290 M118.802 45.291 C 120.114 45.320,122.214 45.319,123.468 45.291 C 124.723 45.263,123.650 45.240,121.083 45.240 C 118.517 45.240,117.490 45.263,118.802 45.291 M111.708 49.782 C 111.869 49.823,112.131 49.823,112.292 49.782 C 112.452 49.740,112.321 49.705,112.000 49.705 C 111.679 49.705,111.548 49.740,111.708 49.782 M116.298 49.790 C 116.875 49.823,117.775 49.823,118.298 49.790 C 118.822 49.757,118.350 49.730,117.250 49.730 C 116.150 49.731,115.722 49.758,116.298 49.790 M120.750 49.820 C 121.738 49.915,121.751 49.924,121.853 50.500 C 121.955 51.079,121.956 51.079,121.978 50.575 C 122.009 49.847,121.736 49.663,120.675 49.695 L 119.750 49.723 120.750 49.820 M78.833 52.167 C 78.833 52.258,78.946 52.333,79.083 52.333 C 79.221 52.333,79.333 52.258,79.333 52.167 C 79.333 52.075,79.221 52.000,79.083 52.000 C 78.946 52.000,78.833 52.075,78.833 52.167 M109.714 53.750 C 109.716 54.208,109.748 54.376,109.786 54.123 C 109.825 53.869,109.824 53.494,109.784 53.289 C 109.744 53.084,109.713 53.292,109.714 53.750 M84.531 59.770 C 84.686 59.816,84.848 60.018,84.892 60.219 C 84.958 60.524,84.967 60.516,84.944 60.168 C 84.925 59.887,84.810 59.743,84.583 59.720 C 84.343 59.695,84.329 59.709,84.531 59.770 M105.402 64.083 C 105.401 65.642,105.426 66.302,105.457 65.550 C 105.488 64.798,105.488 63.523,105.458 62.717 C 105.427 61.910,105.402 62.525,105.402 64.083 M77.211 61.708 C 76.986 61.996,76.830 62.689,77.016 62.574 C 77.099 62.522,77.167 62.350,77.167 62.190 C 77.167 62.031,77.257 61.810,77.367 61.700 C 77.477 61.590,77.523 61.500,77.470 61.500 C 77.417 61.500,77.301 61.594,77.211 61.708 M69.833 62.910 C 69.833 63.044,69.669 63.307,69.469 63.494 C 69.268 63.680,69.158 63.833,69.224 63.833 C 69.354 63.833,70.333 62.872,70.333 62.744 C 70.333 62.702,70.221 62.667,70.083 62.667 C 69.946 62.667,69.833 62.776,69.833 62.910 M109.714 68.083 C 109.716 68.542,109.748 68.709,109.786 68.456 C 109.825 68.203,109.824 67.828,109.784 67.623 C 109.744 67.418,109.713 67.625,109.714 68.083 M94.705 67.865 C 94.808 68.174,95.167 68.225,95.167 67.931 C 95.167 67.785,95.048 67.667,94.903 67.667 C 94.758 67.667,94.669 67.756,94.705 67.865 M83.611 71.278 C 83.550 71.339,83.500 71.537,83.500 71.718 C 83.500 71.899,83.369 72.153,83.208 72.282 C 82.942 72.498,82.948 72.503,83.272 72.347 C 83.484 72.245,83.657 71.972,83.702 71.671 C 83.782 71.126,83.778 71.111,83.611 71.278 M75.330 72.875 C 75.171 73.202,75.177 73.215,75.374 72.973 C 75.498 72.820,75.821 72.663,76.091 72.623 L 76.583 72.550 76.048 72.525 C 75.642 72.506,75.467 72.591,75.330 72.875 M64.890 73.917 C 64.891 74.650,64.920 74.929,64.956 74.537 C 64.991 74.145,64.990 73.545,64.954 73.204 C 64.919 72.863,64.890 73.183,64.890 73.917 M90.667 72.831 C 90.667 72.937,90.786 73.143,90.932 73.289 C 91.174 73.531,91.192 73.521,91.140 73.165 C 91.083 72.771,90.667 72.478,90.667 72.831 M125.128 73.287 C 125.428 73.325,125.878 73.324,126.128 73.286 C 126.378 73.248,126.133 73.217,125.583 73.218 C 125.033 73.219,124.828 73.250,125.128 73.287 M109.709 73.917 C 109.711 74.283,109.745 74.414,109.785 74.206 C 109.824 73.999,109.823 73.699,109.781 73.540 C 109.739 73.380,109.707 73.550,109.709 73.917 M91.027 73.875 C 91.012 74.035,90.925 74.167,90.833 74.167 C 90.742 74.167,90.667 74.392,90.667 74.667 C 90.667 75.181,90.941 75.349,91.100 74.933 C 91.150 74.804,91.159 74.448,91.122 74.141 C 91.084 73.834,91.041 73.715,91.027 73.875 M74.583 74.333 C 74.523 74.608,74.407 74.833,74.326 74.833 C 74.245 74.833,74.090 75.002,73.981 75.208 C 73.798 75.557,73.814 75.554,74.214 75.160 C 74.599 74.780,75.004 73.833,74.781 73.833 C 74.733 73.833,74.644 74.058,74.583 74.333 M86.458 75.513 C 86.298 75.607,86.173 75.811,86.180 75.967 C 86.191 76.198,86.211 76.204,86.290 76.000 C 86.344 75.862,86.506 75.659,86.652 75.547 C 86.974 75.300,86.859 75.280,86.458 75.513 M109.714 76.917 C 109.716 77.375,109.748 77.543,109.786 77.289 C 109.825 77.036,109.824 76.661,109.784 76.456 C 109.744 76.251,109.713 76.458,109.714 76.917 M65.205 76.698 C 65.288 76.947,65.667 77.084,65.667 76.865 C 65.667 76.776,65.548 76.657,65.403 76.601 C 65.240 76.539,65.164 76.576,65.205 76.698 M60.932 77.487 C 60.963 77.800,61.055 78.100,61.136 78.153 C 61.217 78.206,61.333 78.362,61.393 78.500 C 61.453 78.637,61.458 78.526,61.404 78.252 C 61.351 77.978,61.245 77.715,61.170 77.668 C 61.095 77.622,60.998 77.433,60.954 77.250 C 60.911 77.067,60.901 77.173,60.932 77.487 M95.759 77.593 C 95.697 77.927,95.679 78.234,95.719 78.275 C 95.760 78.316,95.845 78.075,95.907 77.741 C 95.970 77.406,95.988 77.099,95.947 77.059 C 95.907 77.018,95.822 77.258,95.759 77.593 M89.370 79.259 C 89.167 79.402,89.006 79.646,89.013 79.801 C 89.024 80.030,89.044 80.036,89.117 79.833 C 89.166 79.696,89.367 79.454,89.562 79.295 C 90.005 78.936,89.869 78.910,89.370 79.259 M76.000 82.667 L 75.417 82.789 75.948 82.811 C 76.241 82.823,76.527 82.758,76.583 82.667 C 76.640 82.575,76.663 82.510,76.635 82.522 C 76.607 82.534,76.321 82.599,76.000 82.667 M63.934 83.736 C 63.990 83.881,64.109 84.000,64.198 84.000 C 64.417 84.000,64.280 83.621,64.031 83.538 C 63.909 83.498,63.872 83.574,63.934 83.736 M71.114 83.769 C 71.162 83.896,71.307 84.000,71.434 84.000 C 71.781 84.000,71.715 83.718,71.346 83.622 C 71.121 83.563,71.051 83.607,71.114 83.769 M74.742 84.650 C 74.655 84.733,74.433 84.837,74.250 84.881 C 73.934 84.957,73.935 84.962,74.271 84.981 C 74.466 84.991,74.719 84.887,74.833 84.750 C 75.060 84.477,74.996 84.409,74.742 84.650 M46.564 87.250 C 46.564 88.350,46.591 88.778,46.624 88.202 C 46.656 87.625,46.656 86.725,46.623 86.202 C 46.590 85.678,46.563 86.150,46.564 87.250 M65.952 85.667 C 66.000 85.850,66.142 86.000,66.268 86.000 C 66.443 86.000,66.430 85.922,66.211 85.667 C 66.054 85.483,65.912 85.333,65.895 85.333 C 65.878 85.333,65.904 85.483,65.952 85.667 M109.720 88.167 C 109.720 88.763,109.750 89.006,109.787 88.708 C 109.824 88.410,109.824 87.923,109.787 87.625 C 109.750 87.327,109.720 87.571,109.720 88.167 M104.458 88.786 C 104.206 88.824,104.000 88.925,104.000 89.011 C 104.000 89.269,104.790 89.186,104.894 88.917 C 104.946 88.779,104.973 88.678,104.953 88.692 C 104.933 88.705,104.710 88.748,104.458 88.786 M81.833 89.500 C 81.833 89.592,81.946 89.667,82.083 89.667 C 82.221 89.667,82.333 89.592,82.333 89.500 C 82.333 89.408,82.221 89.333,82.083 89.333 C 81.946 89.333,81.833 89.408,81.833 89.500 M55.163 93.443 C 55.256 93.490,55.333 93.630,55.333 93.754 C 55.333 93.879,55.407 94.026,55.498 94.082 C 55.602 94.146,55.612 94.047,55.524 93.809 C 55.447 93.603,55.296 93.417,55.188 93.396 C 55.080 93.375,55.069 93.396,55.163 93.443 M100.375 94.042 C 100.196 94.531,100.200 94.552,100.422 94.260 C 100.634 93.980,100.759 93.500,100.620 93.500 C 100.594 93.500,100.484 93.744,100.375 94.042 M50.948 95.441 C 51.149 95.485,51.351 95.647,51.397 95.802 C 51.457 96.004,51.471 95.990,51.447 95.750 C 51.424 95.524,51.280 95.408,50.998 95.389 C 50.651 95.366,50.642 95.375,50.948 95.441 M56.280 95.602 C 56.385 95.876,57.333 96.000,57.333 95.739 C 57.333 95.628,57.079 95.507,56.769 95.471 C 56.382 95.425,56.228 95.467,56.280 95.602 M57.792 96.284 C 57.998 96.324,58.335 96.324,58.542 96.284 C 58.748 96.245,58.579 96.212,58.167 96.212 C 57.754 96.212,57.585 96.245,57.792 96.284 M68.211 96.286 C 68.464 96.325,68.839 96.324,69.044 96.284 C 69.249 96.244,69.042 96.213,68.583 96.214 C 68.125 96.216,67.957 96.248,68.211 96.286 M81.042 96.288 C 81.385 96.324,81.948 96.324,82.292 96.288 C 82.635 96.252,82.354 96.223,81.667 96.223 C 80.979 96.223,80.698 96.252,81.042 96.288 M75.390 98.417 C 75.391 99.150,75.420 99.429,75.456 99.037 C 75.491 98.645,75.490 98.045,75.454 97.704 C 75.419 97.363,75.390 97.683,75.390 98.417 M100.250 100.167 L 98.750 100.270 100.198 100.302 C 101.020 100.320,101.692 100.261,101.750 100.167 C 101.807 100.075,101.830 100.014,101.802 100.031 C 101.773 100.049,101.075 100.110,100.250 100.167 M58.386 100.291 C 59.927 100.319,62.402 100.319,63.886 100.291 C 65.369 100.264,64.108 100.241,61.083 100.241 C 58.058 100.241,56.844 100.264,58.386 100.291 M67.875 100.290 C 68.402 100.323,69.265 100.323,69.792 100.290 C 70.319 100.257,69.887 100.230,68.833 100.230 C 67.779 100.230,67.348 100.257,67.875 100.290 M75.877 100.286 C 76.131 100.325,76.506 100.324,76.711 100.284 C 76.916 100.244,76.708 100.213,76.250 100.214 C 75.792 100.216,75.624 100.248,75.877 100.286 M79.125 100.290 C 79.606 100.323,80.394 100.323,80.875 100.290 C 81.356 100.256,80.962 100.228,80.000 100.228 C 79.037 100.228,78.644 100.256,79.125 100.290 M87.219 100.292 C 89.128 100.318,92.203 100.318,94.053 100.291 C 95.903 100.265,94.342 100.243,90.583 100.243 C 86.825 100.243,85.311 100.265,87.219 100.292 " stroke="none" fill="#748c8c" fill-rule="evenodd"></path><path id="path4" d="M109.729 36.417 C 109.729 37.425,109.757 37.816,109.790 37.286 C 109.823 36.755,109.823 35.930,109.789 35.452 C 109.756 34.974,109.729 35.408,109.729 36.417 M51.708 38.944 C 51.594 38.990,51.500 39.106,51.500 39.201 C 51.500 39.319,51.567 39.320,51.708 39.205 C 51.823 39.112,52.067 38.999,52.250 38.954 L 52.583 38.872 52.250 38.866 C 52.067 38.862,51.823 38.897,51.708 38.944 M80.544 38.953 C 80.797 38.991,81.172 38.990,81.377 38.951 C 81.582 38.911,81.375 38.880,80.917 38.881 C 80.458 38.882,80.291 38.915,80.544 38.953 M109.726 40.250 C 109.725 41.075,109.754 41.434,109.788 41.047 C 109.823 40.660,109.824 39.985,109.789 39.547 C 109.755 39.109,109.726 39.425,109.726 40.250 M105.412 50.833 C 105.412 56.654,105.433 59.035,105.458 56.125 C 105.484 53.215,105.484 48.452,105.458 45.542 C 105.433 42.631,105.412 45.012,105.412 50.833 M51.390 41.917 C 51.391 42.650,51.420 42.929,51.456 42.537 C 51.491 42.145,51.490 41.545,51.454 41.204 C 51.419 40.863,51.390 41.183,51.390 41.917 M109.718 43.083 C 109.719 43.633,109.750 43.838,109.787 43.539 C 109.825 43.239,109.824 42.789,109.786 42.539 C 109.748 42.288,109.717 42.533,109.718 43.083 M77.833 43.677 C 77.833 43.774,77.912 43.805,78.007 43.745 C 78.103 43.686,78.309 43.738,78.466 43.861 C 78.722 44.061,78.727 44.054,78.521 43.792 C 78.270 43.471,77.833 43.398,77.833 43.677 M51.414 65.583 C 51.414 77.592,51.434 82.480,51.458 76.445 C 51.483 70.411,51.483 60.586,51.458 54.612 C 51.434 48.638,51.414 53.575,51.414 65.583 M79.772 45.327 C 79.909 45.602,80.086 45.867,80.166 45.916 C 80.245 45.965,80.198 45.781,80.061 45.506 C 79.924 45.231,79.747 44.966,79.667 44.917 C 79.588 44.868,79.635 45.052,79.772 45.327 M114.380 45.289 C 114.818 45.324,115.493 45.323,115.880 45.288 C 116.267 45.254,115.908 45.225,115.083 45.226 C 114.258 45.226,113.942 45.255,114.380 45.289 M73.925 48.042 C 73.776 48.522,73.724 49.151,73.839 49.080 C 73.907 49.038,73.994 48.740,74.031 48.418 C 74.100 47.834,74.047 47.648,73.925 48.042 M83.167 49.624 C 83.304 49.677,83.515 49.840,83.634 49.985 C 83.819 50.210,83.824 50.193,83.670 49.875 C 83.570 49.669,83.360 49.506,83.202 49.513 C 82.971 49.524,82.964 49.545,83.167 49.624 M110.377 49.786 C 110.631 49.825,111.006 49.824,111.211 49.784 C 111.416 49.744,111.208 49.713,110.750 49.714 C 110.292 49.716,110.124 49.748,110.377 49.786 M114.042 49.786 C 114.294 49.824,114.706 49.824,114.958 49.786 C 115.210 49.748,115.004 49.717,114.500 49.717 C 113.996 49.717,113.790 49.748,114.042 49.786 M109.720 52.000 C 109.720 52.596,109.750 52.840,109.787 52.542 C 109.824 52.244,109.824 51.756,109.787 51.458 C 109.750 51.160,109.720 51.404,109.720 52.000 M121.889 52.167 C 121.889 52.854,121.919 53.135,121.955 52.792 C 121.991 52.448,121.991 51.885,121.955 51.542 C 121.919 51.198,121.889 51.479,121.889 52.167 M71.167 52.264 C 71.167 52.558,71.525 52.507,71.628 52.198 C 71.665 52.089,71.576 52.000,71.431 52.000 C 71.285 52.000,71.167 52.119,71.167 52.264 M79.125 52.451 C 79.331 52.491,79.503 52.574,79.506 52.637 C 79.509 52.699,79.705 52.975,79.941 53.250 C 80.406 53.792,80.309 53.530,79.771 52.792 C 79.576 52.524,79.294 52.343,79.094 52.356 C 78.780 52.377,78.783 52.385,79.125 52.451 M85.250 52.447 C 85.433 52.497,85.645 52.624,85.721 52.728 C 85.812 52.853,85.836 52.832,85.791 52.667 C 85.754 52.529,85.542 52.403,85.320 52.386 C 85.002 52.362,84.987 52.375,85.250 52.447 M75.278 53.778 C 75.217 53.839,75.167 54.029,75.167 54.200 C 75.167 54.372,75.045 54.715,74.897 54.964 L 74.627 55.417 74.967 55.005 C 75.153 54.779,75.337 54.385,75.374 54.130 C 75.448 53.628,75.444 53.612,75.278 53.778 M70.042 53.944 C 69.749 54.062,69.781 54.500,70.083 54.500 C 70.222 54.500,70.333 54.352,70.333 54.167 C 70.333 53.983,70.315 53.839,70.292 53.846 C 70.269 53.854,70.156 53.897,70.042 53.944 M80.333 54.147 C 80.333 54.344,80.479 54.489,80.721 54.535 C 81.052 54.599,81.099 54.552,81.035 54.221 C 80.944 53.742,80.333 53.677,80.333 54.147 M121.833 61.094 C 121.833 65.847,121.773 68.481,121.657 68.719 C 121.488 69.071,121.490 69.072,121.741 68.760 C 121.993 68.445,122.165 53.833,121.917 53.833 C 121.871 53.833,121.833 57.101,121.833 61.094 M109.742 60.667 C 109.742 64.104,109.764 65.510,109.791 63.792 C 109.819 62.073,109.819 59.260,109.791 57.542 C 109.764 55.823,109.742 57.229,109.742 60.667 M68.843 55.313 C 68.495 55.411,67.805 56.500,68.092 56.500 C 68.142 56.500,68.262 56.275,68.358 56.000 C 68.467 55.688,68.648 55.500,68.840 55.500 C 69.009 55.500,69.193 55.425,69.250 55.333 C 69.307 55.242,69.330 55.174,69.302 55.183 C 69.273 55.192,69.067 55.251,68.843 55.313 M87.580 55.792 C 87.724 56.090,87.918 56.333,88.011 56.333 C 88.120 56.333,88.116 56.259,88.001 56.125 C 87.902 56.010,87.708 55.767,87.570 55.583 C 87.357 55.303,87.359 55.336,87.580 55.792 M73.765 56.476 C 73.581 56.774,73.319 57.576,73.458 57.417 C 73.642 57.206,74.016 56.333,73.923 56.333 C 73.884 56.333,73.813 56.398,73.765 56.476 M67.595 56.929 C 67.273 57.251,67.267 57.333,67.564 57.333 C 67.691 57.333,67.834 57.183,67.882 57.000 C 67.987 56.598,67.938 56.586,67.595 56.929 M67.000 58.023 C 67.000 58.128,66.869 58.319,66.708 58.449 C 66.445 58.662,66.453 58.667,66.792 58.503 C 67.111 58.349,67.335 57.833,67.083 57.833 C 67.037 57.833,67.000 57.919,67.000 58.023 M78.147 60.297 C 78.092 60.628,78.116 60.784,78.209 60.691 C 78.293 60.607,78.334 60.361,78.300 60.144 C 78.247 59.811,78.224 59.834,78.147 60.297 M86.542 62.513 C 86.702 62.607,86.839 62.811,86.846 62.967 C 86.855 63.149,86.890 63.174,86.946 63.036 C 87.045 62.788,86.713 62.331,86.438 62.338 C 86.335 62.341,86.381 62.420,86.542 62.513 M81.667 63.310 C 81.667 63.389,81.854 63.418,82.083 63.374 C 82.313 63.330,82.500 63.266,82.500 63.231 C 82.500 63.195,82.313 63.167,82.083 63.167 C 81.854 63.167,81.667 63.231,81.667 63.310 M76.167 63.455 C 75.643 63.552,75.393 63.754,75.284 64.172 C 75.161 64.640,75.312 64.578,75.500 64.083 C 75.610 63.794,75.784 63.667,76.069 63.667 C 76.295 63.667,76.527 63.592,76.583 63.500 C 76.640 63.408,76.663 63.344,76.635 63.356 C 76.607 63.369,76.396 63.413,76.167 63.455 M81.325 64.106 C 81.233 64.348,81.188 64.577,81.226 64.615 C 81.264 64.653,81.375 64.455,81.472 64.175 C 81.689 63.553,81.558 63.493,81.325 64.106 M68.330 64.708 C 68.173 65.032,68.179 65.046,68.370 64.811 C 68.492 64.661,68.740 64.501,68.921 64.455 C 69.219 64.380,69.216 64.370,68.881 64.353 C 68.651 64.341,68.443 64.474,68.330 64.708 M93.003 64.464 C 93.004 64.529,93.195 64.763,93.427 64.983 L 93.849 65.383 93.652 64.951 C 93.469 64.549,92.996 64.194,93.003 64.464 M62.667 65.690 C 62.667 65.886,62.535 66.153,62.375 66.282 C 62.112 66.495,62.120 66.501,62.458 66.337 C 62.782 66.180,63.028 65.333,62.750 65.333 C 62.704 65.333,62.667 65.494,62.667 65.690 M105.412 76.917 C 105.412 82.508,105.433 84.772,105.458 81.946 C 105.484 79.121,105.484 74.546,105.458 71.780 C 105.433 69.013,105.412 71.325,105.412 76.917 M66.500 67.911 C 66.500 68.061,66.598 68.119,66.750 68.060 C 66.887 68.008,67.000 67.897,67.000 67.816 C 67.000 67.734,66.887 67.667,66.750 67.667 C 66.612 67.667,66.500 67.777,66.500 67.911 M85.375 68.451 C 85.169 68.491,85.000 68.628,85.000 68.756 C 85.000 68.884,84.850 69.069,84.667 69.167 C 84.483 69.265,84.339 69.436,84.346 69.548 C 84.356 69.700,84.380 69.699,84.444 69.542 C 84.490 69.427,84.634 69.333,84.764 69.333 C 84.894 69.333,85.000 69.258,85.000 69.167 C 85.000 69.075,85.141 69.000,85.314 69.000 C 85.488 69.000,85.667 68.851,85.715 68.667 C 85.763 68.483,85.790 68.344,85.776 68.356 C 85.762 68.369,85.581 68.411,85.375 68.451 M112.542 68.958 C 114.077 68.986,116.590 68.986,118.125 68.958 C 119.660 68.931,118.404 68.908,115.333 68.908 C 112.263 68.908,111.006 68.931,112.542 68.958 M65.853 69.528 C 65.842 69.681,65.790 69.943,65.737 70.111 C 65.647 70.401,65.651 70.401,65.832 70.120 C 65.937 69.956,65.989 69.694,65.947 69.536 C 65.879 69.278,65.870 69.278,65.853 69.528 M60.913 70.013 C 60.852 70.203,60.847 70.403,60.901 70.457 C 60.956 70.511,61.000 70.431,61.000 70.278 C 61.000 70.125,61.075 70.000,61.167 70.000 C 61.258 70.000,61.333 69.925,61.333 69.833 C 61.333 69.529,61.024 69.661,60.913 70.013 M77.211 70.208 C 76.986 70.496,76.830 71.189,77.016 71.074 C 77.099 71.022,77.167 70.850,77.167 70.690 C 77.167 70.531,77.257 70.310,77.367 70.200 C 77.477 70.090,77.523 70.000,77.470 70.000 C 77.417 70.000,77.301 70.094,77.211 70.208 M89.667 70.583 C 89.667 70.721,89.554 70.833,89.417 70.833 C 89.279 70.833,89.167 70.911,89.167 71.006 C 89.167 71.123,89.274 71.121,89.500 71.000 C 89.790 70.845,89.982 70.333,89.750 70.333 C 89.704 70.333,89.667 70.446,89.667 70.583 M65.167 71.078 C 65.167 71.227,65.264 71.285,65.417 71.227 C 65.554 71.174,65.667 71.064,65.667 70.982 C 65.667 70.900,65.554 70.833,65.417 70.833 C 65.279 70.833,65.167 70.943,65.167 71.078 M96.042 71.750 C 96.044 72.117,96.078 72.247,96.118 72.040 C 96.158 71.832,96.156 71.532,96.115 71.373 C 96.073 71.214,96.040 71.383,96.042 71.750 M60.559 73.917 C 60.559 74.742,60.587 75.100,60.622 74.713 C 60.657 74.327,60.657 73.652,60.623 73.213 C 60.588 72.775,60.560 73.092,60.559 73.917 M96.226 73.917 C 96.225 74.742,96.254 75.100,96.288 74.713 C 96.323 74.327,96.324 73.652,96.289 73.213 C 96.255 72.775,96.226 73.092,96.226 73.917 M111.208 73.291 C 112.010 73.321,113.323 73.321,114.125 73.291 C 114.927 73.260,114.271 73.235,112.667 73.235 C 111.063 73.235,110.406 73.260,111.208 73.291 M117.875 73.291 C 119.135 73.320,121.198 73.320,122.458 73.291 C 123.719 73.263,122.688 73.240,120.167 73.240 C 117.646 73.240,116.615 73.263,117.875 73.291 M69.167 74.306 C 69.167 74.412,69.017 74.500,68.833 74.500 C 68.650 74.500,68.500 74.575,68.500 74.667 C 68.500 74.944,69.123 74.853,69.236 74.559 C 69.294 74.409,69.302 74.246,69.254 74.198 C 69.206 74.150,69.167 74.199,69.167 74.306 M68.039 75.625 C 67.880 75.969,67.637 76.349,67.500 76.469 C 67.284 76.658,67.292 76.668,67.556 76.538 C 67.828 76.404,68.603 75.000,68.406 75.000 C 68.363 75.000,68.198 75.281,68.039 75.625 M109.709 75.583 C 109.711 75.950,109.745 76.080,109.785 75.873 C 109.824 75.666,109.823 75.366,109.781 75.206 C 109.739 75.047,109.707 75.217,109.709 75.583 M67.049 77.125 C 66.990 77.285,66.842 77.477,66.721 77.550 C 66.599 77.623,66.500 77.787,66.500 77.913 C 66.500 78.039,66.369 78.177,66.208 78.218 C 65.935 78.290,65.935 78.296,66.214 78.314 C 66.377 78.325,66.560 78.202,66.620 78.042 C 66.680 77.881,66.817 77.675,66.925 77.583 C 67.136 77.403,67.375 76.833,67.240 76.833 C 67.194 76.833,67.108 76.965,67.049 77.125 M84.892 77.625 C 84.829 77.877,84.659 78.181,84.514 78.301 C 84.290 78.485,84.307 78.491,84.625 78.337 C 84.831 78.237,85.000 78.008,85.000 77.827 C 85.000 77.611,85.113 77.500,85.333 77.500 C 85.517 77.500,85.667 77.425,85.667 77.333 C 85.667 76.934,85.002 77.184,84.892 77.625 M79.333 77.833 C 79.333 77.925,79.225 78.000,79.093 78.000 C 78.961 78.000,78.813 78.064,78.765 78.143 C 78.716 78.221,78.862 78.250,79.088 78.206 C 79.423 78.143,79.712 77.667,79.417 77.667 C 79.371 77.667,79.333 77.742,79.333 77.833 M109.740 82.417 C 109.740 85.075,109.763 86.139,109.791 84.781 C 109.819 83.424,109.819 81.249,109.791 79.948 C 109.763 78.647,109.740 79.758,109.740 82.417 M62.208 81.140 C 62.317 81.430,62.465 81.667,62.537 81.667 C 62.608 81.667,62.667 81.775,62.667 81.907 C 62.667 82.039,62.737 82.190,62.823 82.243 C 63.102 82.416,62.710 81.366,62.352 80.981 L 62.009 80.613 62.208 81.140 M70.495 81.009 C 70.394 81.198,70.336 81.426,70.367 81.516 C 70.397 81.607,70.508 81.453,70.613 81.174 C 70.832 80.594,70.766 80.502,70.495 81.009 M87.117 82.266 C 86.953 82.487,86.713 82.667,86.585 82.667 C 86.458 82.667,86.311 82.735,86.260 82.818 C 86.208 82.901,86.310 82.931,86.485 82.885 C 86.821 82.798,87.607 82.050,87.487 81.934 C 87.448 81.896,87.282 82.046,87.117 82.266 M69.835 82.375 C 69.835 82.490,70.032 82.674,70.272 82.786 C 70.685 82.977,70.693 82.972,70.437 82.689 C 70.288 82.524,70.216 82.339,70.277 82.278 C 70.339 82.217,70.264 82.167,70.111 82.167 C 69.958 82.167,69.834 82.260,69.835 82.375 M92.667 83.211 C 92.667 83.357,92.498 83.509,92.292 83.549 L 91.917 83.621 92.297 83.644 C 92.663 83.666,92.984 83.262,92.771 83.048 C 92.713 82.991,92.667 83.064,92.667 83.211 M85.833 83.294 C 85.833 83.395,85.633 83.502,85.388 83.531 C 85.143 83.560,84.923 83.679,84.900 83.796 C 84.877 83.913,84.896 83.931,84.943 83.837 C 84.990 83.744,85.205 83.667,85.421 83.667 C 85.816 83.667,86.119 83.397,85.933 83.211 C 85.878 83.156,85.833 83.194,85.833 83.294 M75.186 83.758 C 75.175 83.946,75.092 84.190,75.001 84.301 C 74.909 84.411,74.954 84.397,75.100 84.270 C 75.246 84.143,75.329 83.899,75.285 83.728 C 75.213 83.447,75.203 83.450,75.186 83.758 M91.384 84.429 L 90.917 84.858 91.458 84.481 C 91.756 84.274,92.000 84.081,92.000 84.052 C 92.000 83.920,91.816 84.033,91.384 84.429 M46.539 84.833 C 46.539 85.154,46.573 85.285,46.615 85.125 C 46.657 84.965,46.657 84.702,46.615 84.542 C 46.573 84.381,46.539 84.512,46.539 84.833 M66.538 86.198 C 66.621 86.447,67.000 86.584,67.000 86.365 C 67.000 86.276,66.881 86.157,66.736 86.101 C 66.574 86.039,66.498 86.076,66.538 86.198 M89.093 86.454 L 88.770 86.897 89.213 86.573 C 89.457 86.396,89.659 86.194,89.661 86.125 C 89.672 85.870,89.407 86.024,89.093 86.454 M84.583 88.508 C 84.351 88.613,84.452 88.628,84.917 88.557 C 85.283 88.501,85.615 88.428,85.653 88.395 C 85.796 88.268,84.903 88.363,84.583 88.508 M104.450 88.620 C 104.128 88.669,103.933 88.829,103.824 89.137 C 103.736 89.382,103.546 89.808,103.402 90.083 L 103.139 90.583 103.480 90.167 C 103.667 89.938,103.867 89.544,103.924 89.292 C 104.000 88.950,104.127 88.833,104.420 88.833 C 104.637 88.833,104.860 88.758,104.917 88.667 C 104.973 88.575,104.996 88.511,104.968 88.525 C 104.940 88.539,104.707 88.582,104.450 88.620 M72.433 88.898 C 72.544 89.188,73.167 89.275,73.167 89.000 C 73.167 88.908,73.098 88.833,73.014 88.833 C 72.929 88.833,72.741 88.787,72.595 88.731 C 72.401 88.657,72.357 88.702,72.433 88.898 M82.410 89.344 C 82.220 89.652,82.472 89.719,82.754 89.437 C 82.987 89.203,82.989 89.167,82.772 89.167 C 82.633 89.167,82.470 89.247,82.410 89.344 M80.794 89.785 C 81.001 89.824,81.301 89.823,81.460 89.781 C 81.620 89.739,81.450 89.707,81.083 89.709 C 80.717 89.711,80.586 89.745,80.794 89.785 M75.405 93.500 C 75.405 95.563,75.429 96.406,75.458 95.375 C 75.487 94.344,75.487 92.656,75.458 91.625 C 75.429 90.594,75.405 91.438,75.405 93.500 M48.320 91.792 C 48.400 92.367,48.411 92.379,48.466 91.938 C 48.499 91.675,48.460 91.394,48.380 91.313 C 48.296 91.229,48.271 91.434,48.320 91.792 M102.232 91.403 C 102.183 91.532,102.169 91.851,102.202 92.111 C 102.251 92.496,102.277 92.453,102.344 91.875 C 102.428 91.146,102.391 90.989,102.232 91.403 M107.575 92.984 C 107.488 93.067,107.267 93.170,107.083 93.214 C 106.767 93.291,106.768 93.296,107.105 93.314 C 107.300 93.325,107.553 93.221,107.667 93.083 C 107.893 92.811,107.830 92.742,107.575 92.984 M50.063 94.759 C 50.286 95.238,50.663 95.439,50.554 95.021 C 50.512 94.863,50.343 94.649,50.177 94.545 C 49.903 94.374,49.893 94.394,50.063 94.759 M61.365 96.291 C 62.529 96.320,64.479 96.320,65.698 96.291 C 66.918 96.263,65.967 96.239,63.583 96.239 C 61.200 96.239,60.202 96.263,61.365 96.291 M69.711 96.286 C 69.964 96.325,70.339 96.324,70.544 96.284 C 70.749 96.244,70.542 96.213,70.083 96.214 C 69.625 96.216,69.457 96.248,69.711 96.286 M83.127 96.285 C 83.334 96.324,83.634 96.323,83.794 96.281 C 83.953 96.239,83.783 96.207,83.417 96.209 C 83.050 96.211,82.920 96.245,83.127 96.285 M87.803 96.292 C 89.757 96.318,92.907 96.318,94.803 96.291 C 96.699 96.265,95.100 96.243,91.250 96.243 C 87.400 96.243,85.849 96.265,87.803 96.292 M104.833 96.639 C 104.833 96.746,104.590 96.845,104.292 96.858 C 103.759 96.883,103.758 96.884,104.229 96.955 C 104.706 97.026,105.163 96.774,104.947 96.558 C 104.885 96.496,104.833 96.532,104.833 96.639 M52.442 97.167 C 52.548 97.304,52.669 97.604,52.711 97.833 L 52.788 98.250 52.811 97.812 C 52.823 97.571,52.702 97.271,52.542 97.145 C 52.288 96.946,52.275 96.949,52.442 97.167 M103.593 97.375 C 103.420 97.945,103.378 98.325,103.496 98.252 C 103.569 98.207,103.661 97.945,103.702 97.669 C 103.776 97.164,103.711 96.987,103.593 97.375 M97.711 100.286 C 97.964 100.325,98.339 100.324,98.544 100.284 C 98.749 100.244,98.542 100.213,98.083 100.214 C 97.625 100.216,97.457 100.248,97.711 100.286 " stroke="none" fill="#749484" fill-rule="evenodd"></path></g></svg>